# xmcd
#
# Track frame offsets: 
#        150
#        26612
#        48289
#        71841
#        88793
#        114140
#        136038
#        157340
#        179842
#        204894
#
# Disc length: 3026 seconds
#
# Revision: 0
# Processed by: cddbd v1.5.2PL0 Copyright (c) Steve Scherf et al.
# Submitted via: ExactAudioCopy v1.0b3
#
DISCID=870bd00a
DTITLE=Manh Quynh - Tuy Ca
DYEAR=1999
DGENRE=
TTITLE0=Tuy ca
TTITLE1=Ke di rong
TTITLE2=Cuoc tinh nuoi tiec
TTITLE3=Cung tat bien dong
TTITLE4=Thuong ve mien dat lanh
TTITLE5=Dem tien biet
TTITLE6=Dang do tinh ta
TTITLE7=Toi yeu nguoi toi xa nguoi
TTITLE8=Muoi nam chuyen cu
TTITLE9=Noi niem chua voi
EXTD=
EXTT0=
EXTT1=
EXTT2=
EXTT3=
EXTT4=
EXTT5=
EXTT6=
EXTT7=
EXTT8=
EXTT9=
PLAYORDER=
